<?xml version="1.0" encoding="UTF-8"?>
<svg xmlns="http://www.w3.org/2000/svg" style="display:none">
  <!-- Trail Manual icon sprite — 50 icons, 24x24 grid, 1.5px stroke, rounded joins -->
  <!-- Usage: <svg class="tm-icon"><use href="/_icons.svg#axle"></use></svg> -->

  <!-- ============================================ -->
  <!-- VEHICLE CONTENT (25)                         -->
  <!-- ============================================ -->

  <symbol id="armor" viewBox="0 0 24 24" fill="none" stroke="currentColor" stroke-width="1.5" stroke-linecap="round" stroke-linejoin="round">
    <path d="M12 3 L19 6 L18 13 Q18 18 12 21 Q6 18 6 13 L5 6 Z"/>
    <line x1="9" y1="10" x2="15" y2="10"/>
  </symbol>

  <symbol id="axle" viewBox="0 0 24 24" fill="none" stroke="currentColor" stroke-width="1.5" stroke-linecap="round" stroke-linejoin="round">
    <line x1="3" y1="12" x2="21" y2="12"/>
    <circle cx="5.5" cy="12" r="2.5"/>
    <circle cx="18.5" cy="12" r="2.5"/>
    <line x1="9" y1="10" x2="15" y2="10"/>
    <line x1="9" y1="14" x2="15" y2="14"/>
  </symbol>

  <symbol id="battery" viewBox="0 0 24 24" fill="none" stroke="currentColor" stroke-width="1.5" stroke-linecap="round" stroke-linejoin="round">
    <rect x="4" y="7" width="16" height="13" rx="1"/>
    <line x1="8" y1="7" x2="8" y2="4"/>
    <line x1="16" y1="7" x2="16" y2="4"/>
    <line x1="9" y1="13" x2="11" y2="13"/>
    <line x1="10" y1="12" x2="10" y2="14"/>
    <line x1="13" y1="13" x2="15" y2="13"/>
  </symbol>

  <symbol id="brakes" viewBox="0 0 24 24" fill="none" stroke="currentColor" stroke-width="1.5" stroke-linecap="round" stroke-linejoin="round">
    <circle cx="11" cy="12" r="7"/>
    <circle cx="11" cy="12" r="3"/>
    <rect x="14" y="9" width="6" height="6" rx="1"/>
  </symbol>

  <symbol id="bumper" viewBox="0 0 24 24" fill="none" stroke="currentColor" stroke-width="1.5" stroke-linecap="round" stroke-linejoin="round">
    <path d="M3 14 Q12 7 21 14"/>
    <line x1="3" y1="14" x2="3" y2="18"/>
    <line x1="21" y1="14" x2="21" y2="18"/>
    <line x1="7" y1="11" x2="7" y2="17"/>
    <line x1="17" y1="11" x2="17" y2="17"/>
  </symbol>

  <symbol id="cooling" viewBox="0 0 24 24" fill="none" stroke="currentColor" stroke-width="1.5" stroke-linecap="round" stroke-linejoin="round">
    <rect x="4" y="5" width="16" height="14" rx="1"/>
    <line x1="7" y1="5" x2="7" y2="19"/>
    <line x1="10" y1="5" x2="10" y2="19"/>
    <line x1="13" y1="5" x2="13" y2="19"/>
    <line x1="16" y1="5" x2="16" y2="19"/>
  </symbol>

  <symbol id="differential" viewBox="0 0 24 24" fill="none" stroke="currentColor" stroke-width="1.5" stroke-linecap="round" stroke-linejoin="round">
    <circle cx="12" cy="12" r="5"/>
    <rect x="2" y="10" width="5" height="4"/>
    <rect x="17" y="10" width="5" height="4"/>
  </symbol>

  <symbol id="drive-shaft" viewBox="0 0 24 24" fill="none" stroke="currentColor" stroke-width="1.5" stroke-linecap="round" stroke-linejoin="round">
    <line x1="6" y1="12" x2="18" y2="12"/>
    <circle cx="5" cy="12" r="2"/>
    <circle cx="19" cy="12" r="2"/>
    <line x1="4" y1="11" x2="6" y2="11"/>
    <line x1="4" y1="13" x2="6" y2="13"/>
    <line x1="18" y1="11" x2="20" y2="11"/>
    <line x1="18" y1="13" x2="20" y2="13"/>
  </symbol>

  <symbol id="electrical" viewBox="0 0 24 24" fill="none" stroke="currentColor" stroke-width="1.5" stroke-linecap="round" stroke-linejoin="round">
    <path d="M13 3 L7 13 L11 13 L9 21 L17 11 L13 11 Z"/>
  </symbol>

  <symbol id="engine" viewBox="0 0 24 24" fill="none" stroke="currentColor" stroke-width="1.5" stroke-linecap="round" stroke-linejoin="round">
    <rect x="4" y="9" width="16" height="11" rx="1"/>
    <rect x="8" y="5" width="3" height="4"/>
    <rect x="13" y="5" width="3" height="4"/>
    <line x1="8" y1="13" x2="8" y2="19"/>
    <line x1="12" y1="13" x2="12" y2="19"/>
    <line x1="16" y1="13" x2="16" y2="19"/>
  </symbol>

  <symbol id="exhaust" viewBox="0 0 24 24" fill="none" stroke="currentColor" stroke-width="1.5" stroke-linecap="round" stroke-linejoin="round">
    <path d="M4 17 L11 17 Q15 17 15 13 L15 9"/>
    <circle cx="15" cy="8" r="1.5"/>
    <path d="M17 5 Q18 4 19 5"/>
    <path d="M19 7 Q20 6 21 7"/>
  </symbol>

  <symbol id="fuel" viewBox="0 0 24 24" fill="none" stroke="currentColor" stroke-width="1.5" stroke-linecap="round" stroke-linejoin="round">
    <path d="M5 7 L5 19 L13 19 L13 7 Z"/>
    <line x1="5" y1="11" x2="13" y2="11"/>
    <path d="M13 10 L17 10 L17 14 L19 14"/>
    <line x1="19" y1="10" x2="19" y2="16"/>
  </symbol>

  <symbol id="gear-ratio" viewBox="0 0 24 24" fill="none" stroke="currentColor" stroke-width="1.5" stroke-linecap="round" stroke-linejoin="round">
    <circle cx="9" cy="9" r="4"/>
    <circle cx="9" cy="9" r="1.5"/>
    <circle cx="16" cy="16" r="3.5"/>
    <circle cx="16" cy="16" r="1"/>
  </symbol>

  <symbol id="interior" viewBox="0 0 24 24" fill="none" stroke="currentColor" stroke-width="1.5" stroke-linecap="round" stroke-linejoin="round">
    <path d="M8 3 L8 14 L18 14"/>
    <path d="M8 14 L8 20 L18 20 L18 13"/>
  </symbol>

  <symbol id="lift-kit" viewBox="0 0 24 24" fill="none" stroke="currentColor" stroke-width="1.5" stroke-linecap="round" stroke-linejoin="round">
    <line x1="4" y1="17" x2="20" y2="17"/>
    <line x1="4" y1="20" x2="20" y2="20"/>
    <line x1="12" y1="13" x2="12" y2="4"/>
    <polyline points="8,8 12,4 16,8"/>
  </symbol>

  <symbol id="recovery" viewBox="0 0 24 24" fill="none" stroke="currentColor" stroke-width="1.5" stroke-linecap="round" stroke-linejoin="round">
    <rect x="3" y="9" width="6" height="6" rx="1"/>
    <circle cx="6" cy="12" r="1.5"/>
    <line x1="9" y1="12" x2="16" y2="12"/>
    <path d="M16 10 L20 12 L16 14 Z"/>
  </symbol>

  <symbol id="shock" viewBox="0 0 24 24" fill="none" stroke="currentColor" stroke-width="1.5" stroke-linecap="round" stroke-linejoin="round">
    <line x1="12" y1="3" x2="12" y2="6"/>
    <rect x="9" y="6" width="6" height="12" rx="1"/>
    <line x1="12" y1="18" x2="12" y2="21"/>
    <line x1="9" y1="9" x2="15" y2="9"/>
    <line x1="9" y1="12" x2="15" y2="12"/>
    <line x1="9" y1="15" x2="15" y2="15"/>
  </symbol>

  <symbol id="steering" viewBox="0 0 24 24" fill="none" stroke="currentColor" stroke-width="1.5" stroke-linecap="round" stroke-linejoin="round">
    <circle cx="12" cy="12" r="8"/>
    <circle cx="12" cy="12" r="1.5"/>
    <line x1="12" y1="6" x2="12" y2="10.5"/>
    <line x1="6" y1="14" x2="10.5" y2="12.5"/>
    <line x1="18" y1="14" x2="13.5" y2="12.5"/>
  </symbol>

  <symbol id="suspension" viewBox="0 0 24 24" fill="none" stroke="currentColor" stroke-width="1.5" stroke-linecap="round" stroke-linejoin="round">
    <path d="M8 3 L16 5 L8 8 L16 10 L8 13 L16 15 L8 18 L16 21"/>
  </symbol>

  <symbol id="tie-rod" viewBox="0 0 24 24" fill="none" stroke="currentColor" stroke-width="1.5" stroke-linecap="round" stroke-linejoin="round">
    <circle cx="5" cy="12" r="2.5"/>
    <line x1="7" y1="12" x2="17" y2="12"/>
    <circle cx="19" cy="12" r="2.5"/>
  </symbol>

  <symbol id="track-bar" viewBox="0 0 24 24" fill="none" stroke="currentColor" stroke-width="1.5" stroke-linecap="round" stroke-linejoin="round">
    <line x1="5" y1="18" x2="19" y2="6"/>
    <circle cx="5" cy="18" r="2"/>
    <circle cx="19" cy="6" r="2"/>
  </symbol>

  <symbol id="transmission" viewBox="0 0 24 24" fill="none" stroke="currentColor" stroke-width="1.5" stroke-linecap="round" stroke-linejoin="round">
    <path d="M5 6 L19 6 L17 12 L17 19 L7 19 L7 12 Z"/>
    <line x1="12" y1="6" x2="12" y2="12"/>
    <circle cx="12" cy="15" r="2"/>
  </symbol>

  <symbol id="wheel" viewBox="0 0 24 24" fill="none" stroke="currentColor" stroke-width="1.5" stroke-linecap="round" stroke-linejoin="round">
    <circle cx="12" cy="12" r="8"/>
    <circle cx="12" cy="12" r="2"/>
    <line x1="12" y1="4" x2="12" y2="10"/>
    <line x1="12" y1="14" x2="12" y2="20"/>
    <line x1="4" y1="12" x2="10" y2="12"/>
    <line x1="14" y1="12" x2="20" y2="12"/>
  </symbol>

  <symbol id="tire" viewBox="0 0 24 24" fill="none" stroke="currentColor" stroke-width="1.5" stroke-linecap="round" stroke-linejoin="round">
    <circle cx="12" cy="12" r="8"/>
    <circle cx="12" cy="12" r="5"/>
    <line x1="12" y1="4" x2="12" y2="7"/>
    <line x1="12" y1="17" x2="12" y2="20"/>
    <line x1="4" y1="12" x2="7" y2="12"/>
    <line x1="17" y1="12" x2="20" y2="12"/>
  </symbol>

  <symbol id="build-recipe" viewBox="0 0 24 24" fill="none" stroke="currentColor" stroke-width="1.5" stroke-linecap="round" stroke-linejoin="round">
    <rect x="6" y="5" width="12" height="16" rx="1"/>
    <rect x="9" y="3" width="6" height="4" rx="1"/>
    <polyline points="9,12 10.5,13.5 13,11"/>
    <line x1="14" y1="12" x2="16" y2="12"/>
    <polyline points="9,17 10.5,18.5 13,16"/>
    <line x1="14" y1="17" x2="16" y2="17"/>
  </symbol>

  <!-- ============================================ -->
  <!-- WORKSHOP (10)                                -->
  <!-- ============================================ -->

  <symbol id="floor-jack" viewBox="0 0 24 24" fill="none" stroke="currentColor" stroke-width="1.5" stroke-linecap="round" stroke-linejoin="round">
    <path d="M3 16 L3 18 L21 18 L21 16"/>
    <path d="M5 16 L8 11 L16 11 L19 16"/>
    <line x1="10" y1="8" x2="14" y2="8"/>
    <line x1="12" y1="8" x2="12" y2="11"/>
    <circle cx="6" cy="20" r="1.5"/>
    <circle cx="18" cy="20" r="1.5"/>
  </symbol>

  <symbol id="torque-wrench" viewBox="0 0 24 24" fill="none" stroke="currentColor" stroke-width="1.5" stroke-linecap="round" stroke-linejoin="round">
    <line x1="4" y1="20" x2="15" y2="9"/>
    <circle cx="17" cy="7" r="3"/>
    <circle cx="17" cy="7" r="0.6" fill="currentColor"/>
    <line x1="17" y1="7" x2="19" y2="5"/>
  </symbol>

  <symbol id="impact-wrench" viewBox="0 0 24 24" fill="none" stroke="currentColor" stroke-width="1.5" stroke-linecap="round" stroke-linejoin="round">
    <path d="M5 8 L13 8 L13 14 L9 14 L9 20 L5 20 Z"/>
    <line x1="13" y1="11" x2="19" y2="11"/>
    <circle cx="19" cy="11" r="2"/>
  </symbol>

  <symbol id="multimeter" viewBox="0 0 24 24" fill="none" stroke="currentColor" stroke-width="1.5" stroke-linecap="round" stroke-linejoin="round">
    <rect x="5" y="3" width="14" height="18" rx="1"/>
    <rect x="7" y="5" width="10" height="4"/>
    <circle cx="9" cy="14" r="1.5"/>
    <circle cx="15" cy="14" r="1.5"/>
    <line x1="9" y1="14" x2="10" y2="13"/>
  </symbol>

  <symbol id="socket-set" viewBox="0 0 24 24" fill="none" stroke="currentColor" stroke-width="1.5" stroke-linecap="round" stroke-linejoin="round">
    <circle cx="5" cy="12" r="2"/>
    <circle cx="12" cy="12" r="3"/>
    <circle cx="19" cy="12" r="2.5"/>
    <circle cx="5" cy="12" r="0.6" fill="currentColor"/>
    <circle cx="12" cy="12" r="0.8" fill="currentColor"/>
    <circle cx="19" cy="12" r="0.7" fill="currentColor"/>
  </symbol>

  <symbol id="breaker-bar" viewBox="0 0 24 24" fill="none" stroke="currentColor" stroke-width="1.5" stroke-linecap="round" stroke-linejoin="round">
    <line x1="3" y1="18" x2="14" y2="7"/>
    <line x1="3" y1="17" x2="4" y2="18"/>
    <line x1="3" y1="19" x2="4" y2="18"/>
    <circle cx="15" cy="6" r="2.5"/>
  </symbol>

  <symbol id="safety-glasses" viewBox="0 0 24 24" fill="none" stroke="currentColor" stroke-width="1.5" stroke-linecap="round" stroke-linejoin="round">
    <ellipse cx="7" cy="13" rx="4" ry="3"/>
    <ellipse cx="17" cy="13" rx="4" ry="3"/>
    <line x1="11" y1="13" x2="13" y2="13"/>
    <line x1="3" y1="11" x2="3" y2="9"/>
    <line x1="21" y1="11" x2="21" y2="9"/>
  </symbol>

  <symbol id="fire-extinguisher" viewBox="0 0 24 24" fill="none" stroke="currentColor" stroke-width="1.5" stroke-linecap="round" stroke-linejoin="round">
    <rect x="9" y="7" width="6" height="13" rx="1"/>
    <rect x="10" y="4" width="4" height="3"/>
    <line x1="14" y1="5" x2="18" y2="5"/>
    <line x1="18" y1="5" x2="18" y2="7"/>
    <path d="M18 7 Q19 8 18 9"/>
  </symbol>

  <symbol id="shop-lighting" viewBox="0 0 24 24" fill="none" stroke="currentColor" stroke-width="1.5" stroke-linecap="round" stroke-linejoin="round">
    <line x1="12" y1="3" x2="12" y2="8"/>
    <path d="M7 8 L17 8 L15 14 L9 14 Z"/>
    <line x1="10" y1="16" x2="10" y2="18"/>
    <line x1="14" y1="16" x2="14" y2="18"/>
    <line x1="12" y1="16" x2="12" y2="20"/>
  </symbol>

  <symbol id="tool-storage" viewBox="0 0 24 24" fill="none" stroke="currentColor" stroke-width="1.5" stroke-linecap="round" stroke-linejoin="round">
    <rect x="3" y="5" width="18" height="14" rx="1"/>
    <line x1="3" y1="10" x2="21" y2="10"/>
    <line x1="3" y1="15" x2="21" y2="15"/>
    <line x1="11" y1="7" x2="13" y2="7"/>
    <line x1="11" y1="12" x2="13" y2="12"/>
    <line x1="11" y1="17" x2="13" y2="17"/>
  </symbol>

  <!-- ============================================ -->
  <!-- UI (15)                                       -->
  <!-- ============================================ -->

  <symbol id="search" viewBox="0 0 24 24" fill="none" stroke="currentColor" stroke-width="1.5" stroke-linecap="round" stroke-linejoin="round">
    <circle cx="10" cy="10" r="6"/>
    <line x1="14.5" y1="14.5" x2="20" y2="20"/>
  </symbol>

  <symbol id="filter" viewBox="0 0 24 24" fill="none" stroke="currentColor" stroke-width="1.5" stroke-linecap="round" stroke-linejoin="round">
    <path d="M3 5 L21 5 L14 13 L14 20 L10 18 L10 13 Z"/>
  </symbol>

  <symbol id="sort" viewBox="0 0 24 24" fill="none" stroke="currentColor" stroke-width="1.5" stroke-linecap="round" stroke-linejoin="round">
    <line x1="5" y1="6" x2="19" y2="6"/>
    <line x1="5" y1="12" x2="14" y2="12"/>
    <line x1="5" y1="18" x2="10" y2="18"/>
  </symbol>

  <symbol id="menu" viewBox="0 0 24 24" fill="none" stroke="currentColor" stroke-width="1.5" stroke-linecap="round" stroke-linejoin="round">
    <line x1="4" y1="7" x2="20" y2="7"/>
    <line x1="4" y1="12" x2="20" y2="12"/>
    <line x1="4" y1="17" x2="20" y2="17"/>
  </symbol>

  <symbol id="close" viewBox="0 0 24 24" fill="none" stroke="currentColor" stroke-width="1.5" stroke-linecap="round" stroke-linejoin="round">
    <line x1="6" y1="6" x2="18" y2="18"/>
    <line x1="18" y1="6" x2="6" y2="18"/>
  </symbol>

  <symbol id="arrow-right" viewBox="0 0 24 24" fill="none" stroke="currentColor" stroke-width="1.5" stroke-linecap="round" stroke-linejoin="round">
    <line x1="4" y1="12" x2="20" y2="12"/>
    <polyline points="14,6 20,12 14,18"/>
  </symbol>

  <symbol id="arrow-left" viewBox="0 0 24 24" fill="none" stroke="currentColor" stroke-width="1.5" stroke-linecap="round" stroke-linejoin="round">
    <line x1="4" y1="12" x2="20" y2="12"/>
    <polyline points="10,6 4,12 10,18"/>
  </symbol>

  <symbol id="external-link" viewBox="0 0 24 24" fill="none" stroke="currentColor" stroke-width="1.5" stroke-linecap="round" stroke-linejoin="round">
    <path d="M14 4 L20 4 L20 10"/>
    <line x1="13" y1="11" x2="20" y2="4"/>
    <path d="M19 13 L19 19 Q19 20 18 20 L6 20 Q5 20 5 19 L5 7 Q5 6 6 6 L11 6"/>
  </symbol>

  <symbol id="check" viewBox="0 0 24 24" fill="none" stroke="currentColor" stroke-width="1.5" stroke-linecap="round" stroke-linejoin="round">
    <polyline points="5,12 10,17 19,7"/>
  </symbol>

  <symbol id="warning" viewBox="0 0 24 24" fill="none" stroke="currentColor" stroke-width="1.5" stroke-linecap="round" stroke-linejoin="round">
    <path d="M12 3 L21 19 L3 19 Z"/>
    <line x1="12" y1="10" x2="12" y2="14"/>
    <circle cx="12" cy="17" r="0.6" fill="currentColor"/>
  </symbol>

  <symbol id="info" viewBox="0 0 24 24" fill="none" stroke="currentColor" stroke-width="1.5" stroke-linecap="round" stroke-linejoin="round">
    <circle cx="12" cy="12" r="9"/>
    <line x1="12" y1="11" x2="12" y2="16"/>
    <circle cx="12" cy="8" r="0.6" fill="currentColor"/>
  </symbol>

  <symbol id="caution-triangle" viewBox="0 0 24 24" stroke-linecap="round" stroke-linejoin="round">
    <path d="M12 3 L21 19 L3 19 Z" fill="currentColor"/>
    <line x1="12" y1="10" x2="12" y2="14" stroke="#F7F4ED" stroke-width="2"/>
    <circle cx="12" cy="17" r="0.9" fill="#F7F4ED"/>
  </symbol>

  <symbol id="compass" viewBox="0 0 24 24" fill="none" stroke="currentColor" stroke-width="1.5" stroke-linecap="round" stroke-linejoin="round">
    <circle cx="12" cy="12" r="9"/>
    <polygon points="12,5 14,13 12,19 10,13"/>
  </symbol>

  <symbol id="book" viewBox="0 0 24 24" fill="none" stroke="currentColor" stroke-width="1.5" stroke-linecap="round" stroke-linejoin="round">
    <path d="M4 5 L11 5 L12 6 L13 5 L20 5 L20 19 L13 19 L12 20 L11 19 L4 19 Z"/>
    <line x1="12" y1="6" x2="12" y2="20"/>
  </symbol>

  <symbol id="photo" viewBox="0 0 24 24" fill="none" stroke="currentColor" stroke-width="1.5" stroke-linecap="round" stroke-linejoin="round">
    <rect x="3" y="5" width="18" height="14" rx="1"/>
    <circle cx="9" cy="10" r="1.5"/>
    <polyline points="3,17 9,11 14,16 17,13 21,17"/>
  </symbol>

</svg>
